<?xml version="1.0" standalone="no"?>
<!DOCTYPE svg PUBLIC "-//W3C//DTD SVG 20010904//EN"
 "http://www.w3.org/TR/2001/REC-SVG-20010904/DTD/svg10.dtd">
<svg version="1.0" xmlns="http://www.w3.org/2000/svg"
 width="512.000000pt" height="512.000000pt" viewBox="0 0 512.000000 512.000000"
 preserveAspectRatio="xMidYMid meet">

<g transform="translate(0.000000,512.000000) scale(0.100000,-0.100000)"
fill="#000000" stroke="none">
<path d="M1995 5105 c-698 -46 -1151 -161 -1324 -336 -91 -93 -161 -343 -207
-747 -17 -149 -18 -153 -43 -159 -68 -16 -145 -75 -179 -137 -15 -27 -17 -74
-20 -348 -3 -307 -2 -319 19 -367 21 -50 79 -112 122 -132 l22 -10 1 -777 c0
-622 4 -832 18 -1052 18 -295 24 -329 58 -380 47 -69 63 -74 221 -75 l142 0 5
-200 c5 -195 6 -201 32 -246 68 -115 234 -167 388 -120 58 18 81 31 125 74 35
35 57 65 64 92 6 22 11 122 11 223 l0 182 1154 0 1154 0 3 -198 4 -199 30 -49
c81 -131 276 -181 431 -110 69 32 108 66 137 121 20 36 22 59 25 238 l4 199
68 -7 c96 -10 173 8 219 50 l36 33 8 504 c4 277 6 772 4 1100 l-4 597 27 10
c45 15 106 78 129 132 21 48 22 60 19 367 -3 352 -2 345 -74 414 -36 35 -84
61 -134 72 -25 5 -26 9 -44 153 -42 357 -108 591 -197 704 -57 72 -218 158
-402 213 -484 146 -1342 218 -2052 171z m1715 -635 l0 -180 -1170 0 -1170 0 0
180 0 180 1170 0 1170 0 0 -180z m410 -1200 l0 -830 -1580 0 -1580 0 0 830 0
830 1580 0 1580 0 0 -830z m-2579 -1648 c73 -35 125 -87 160 -158 28 -57 33
-76 33 -142 -1 -300 -359 -443 -568 -227 -105 108 -119 285 -33 412 36 52 121
116 177 132 58 17 180 8 231 -17z m2290 0 c73 -35 125 -87 160 -158 28 -57 33
-76 33 -144 0 -68 -5 -87 -33 -144 -129 -262 -508 -240 -607 36 -34 95 -12
229 50 311 32 42 117 101 166 116 57 17 180 8 231 -17z"/>
</g>
</svg>
